<?xml version="1.0" encoding="UTF-8"?>
<svg id="Layer_2" data-name="Layer 2" xmlns="http://www.w3.org/2000/svg" viewBox="0 0 454.46 219.73">
  <defs>
    <style>
      .cls-1 {
        fill: #1d7eaa;
        stroke-width: 0px;
      }
    </style>
  </defs>
  <g id="Layer_1-2" data-name="Layer 1">
    <g>
      <path class="cls-1" d="M166.78,7.84c-12.11,5.6-22.86,11.86-33.14,18.97-2.49,1.72-2.88,2.75-.9,5.3,8.56,11.05,16.97,22.22,25.17,33.54,2.05,2.83,3.15,2.05,5.27.35,14-11.29,29.71-18.88,47.69-21.25,6.99-.92,13.97-.93,20.54,2.25,6.2,3.01,9.02,8.28,8.15,15.07-.94,7.31-4.42,13.55-8.49,19.48-9.94,14.53-23.06,26.22-35.07,38.89-18.56,19.57-37.34,38.93-56.14,58.27-2.28,2.35-3.12,4.69-3.03,7.92.26,9.65.05,19.32.32,28.97.09,3.09-.76,3.9-3.84,3.89-43.14-.12-86.27-.14-129.41-.06-3.06,0-3.89-.77-3.89-3.87C.1,144.96.1,74.35,0,3.75,0,.48,1.12,0,4,0c43.97.09,87.94.03,131.91.12,10.58.02,20.85,1.66,30.88,7.72ZM86.03,129.03c-9.26,0-16.92.09-24.58-.05-2.8-.05-4.2.34-4.15,3.73.2,12.98.09,25.97.08,38.96,0,1.71-.19,3.39,2.41,3.33,17.13-.43,34.34,1.24,51.39-.99,9.42-1.23,17.65-5.34,21.26-15.11,4.87-13.17-2.85-25.23-18.14-28.61-9.88-2.18-19.92-.82-28.27-1.24ZM83.71,45.13c0-.09,0-.18,0-.27-7.66,0-15.31.1-22.97-.05-2.61-.05-3.43.76-3.4,3.39.12,11.81.13,23.63,0,35.45-.03,2.77.7,3.75,3.61,3.68,8.15-.19,16.31.05,24.47-.08,7.64-.13,15.33.78,22.91-.64,12.49-2.33,19.24-10.69,18.51-22.64-.67-11-8.22-18.08-20.66-18.76-7.47-.41-14.97-.07-22.46-.07Z"/>
      <path class="cls-1" d="M211.17,173.12c5.7-5.83,11.27-11.43,16.74-17.14,16.24-16.94,33.69-32.74,48.17-51.32,9.27-11.89,17.58-24.38,20.65-39.45,4.72-23.18-5.13-44.5-25.89-56.91-4.96-2.97-10.21-5.36-15.9-7.35,1.28-1.14,2.45-.78,3.5-.78,36.47-.01,72.95,0,109.42.03,15.62.01,30.91,2.18,45.34,8.41,15.99,6.91,28.45,17.48,32.69,35.2,6.03,25.22-6.68,48.55-30.99,57.66-1.09.41-2.18.8-3.27,1.2.17,1.07,1.04,1.13,1.77,1.35,24.97,7.55,38.81,24.32,40.85,49.51,1.98,24.4-9.81,44.58-32.53,55.71-16.39,8.03-33.95,10.39-51.91,10.49-20.48.11-40.97-.19-61.45-.09-3.68.02-4.38-1.31-4.33-4.62.17-12.15-.09-24.31.14-36.47.07-3.74-.97-4.73-4.72-4.7-27.65.16-55.29.09-82.94.05-1.58,0-3.26.49-5.35-.76ZM346.98,129.21c-9.11,0-16.61.13-24.09-.07-3.03-.08-4.02.77-3.98,3.9.17,12.65.18,25.31,0,37.97-.05,3.3.96,4.22,4.21,4.18,13.66-.17,27.32.03,40.97-.12,6.87-.08,13.6-1.18,19.73-4.62,7.86-4.41,11.65-11.04,11.25-20.12-.38-8.46-5.07-13.78-12.25-17.37-2.85-1.42-5.89-2.25-9.02-2.82-9.43-1.72-18.95-.5-26.81-.92ZM344.96,45.23s0-.09,0-.13c-7.49,0-14.97.06-22.46-.04-2.39-.03-3.61.41-3.58,3.23.13,11.97.1,23.95.01,35.92-.02,2.36.75,3.18,3.14,3.17,14.97-.11,29.95.26,44.91-.24,13.05-.44,21.3-9.34,21.24-21.68-.06-11.93-7.96-19.58-21.31-20.17-7.3-.32-14.63-.06-21.95-.06Z"/>
    </g>
  </g>
</svg>